# xmcd
#
# Track frame offsets: 
#        183
#        22330
#        38683
#        57088
#        72100
#        93648
#        112515
#        126935
#        142965
#        163868
#        178580
#        199930
#        229025
#        245218
#        262930
#
# Disc length: 3782 seconds
#
# Revision: 1
# Processed by: cddbd v1.5.2PL0 Copyright (c) Steve Scherf et al.
# Submitted via: ExactAudioCopy v0.95b4
#
DISCID=d00ec40f
DTITLE=Various Artist - Baladas de Platino - CD6
DYEAR=1993
DGENRE=Latin
TTITLE0=Jose Luis Perales - Voy A Volverme Loco
TTITLE1=Raphael - Toco Madera
TTITLE2=Ilan Chester - Palabras Del Alma
TTITLE3=Leo Dan - Fue Una Noche De Verano
TTITLE4=Danny Rivera - Como He De Vivir Sin Tu Carino
TTITLE5=Ana Gabriel - Destino
TTITLE6=Vicente Fernandez - Mujeres Divinas
TTITLE7=Angelica Maria - Reina y Cenicienta
TTITLE8=Emmanuel - Bella Senora
TTITLE9=Lucero - Cuando Llega El Amor
TTITLE10=Shakira - Magia
TTITLE11=Luis Angel - Un Amor Que Termina Asi
TTITLE12=Lucia Mendez - Juntos Por Costumbre
TTITLE13=Los Bukis - Y Ahora Te Vas
TTITLE14=Alejandra Guzman - Hacer El Amor Con Otro
EXTD=
EXTT0=
EXTT1=
EXTT2=
EXTT3=
EXTT4=
EXTT5=
EXTT6=
EXTT7=
EXTT8=
EXTT9=
EXTT10=
EXTT11=
EXTT12=
EXTT13=
EXTT14=
PLAYORDER=
